<?xml version="1.0" encoding="iso-8859-1"?>
<svg xmlns:dc="http://purl.org/dc/elements/1.1/" xmlns:cc="http://creativecommons.org/ns#" xmlns:rdf="http://www.w3.org/1999/02/22-rdf-syntax-ns#" xmlns:svg="http://www.w3.org/2000/svg" xmlns="http://www.w3.org/2000/svg" viewBox="0 0 238.68333333333 110" width="100%" stroke-width="4" fill="none" stroke="black" stroke-linecap="round">
    <path vector-effect="non-scaling-stroke" transform="translate(0,100)" d="M-5.92 -7.29C-0.42 -7.31 -5.87 -12.97 -8.65 -7.97C-9.2 -6.98 -10.13 3.49 7.86 -1.76C13.54 -3.43 27.21 -13.76 51.3 -38.16C51.3 -38.16 84.43 -69.92 90.85 -67.19C90.85 -67.19 37.84 -0.92 37.84 -0.92C37.84 -0.92 45.31 -15.33 40.78 -26.27C40.78 -26.27 34.16 -45.42 16.27 -40.68C16.27 -40.68 0.32 -34.37 13.75 -17.96C16.05 -15.15 25.32 -9.86 35.84 -10.07C35.84 -10.07 53.38 -10.38 63.82 -17.54C70.58 -22.18 73.28 -25.85 76.44 -34.16" />
    <path vector-effect="non-scaling-stroke" transform="translate(76.79,100)" d="M0.0 -18.35C0.08 -18.67 11.6 -32.44 14.36 -32.2C16.32 -32.04 17.0 -29.84 12.64 -22.84C12.64 -22.84 -0.92 -1.16 -0.92 -1.16C-1.6 1.04 11.84 -14.4 22.8 -24.92C33.08 -34.8 44.44 -35.44 36.16 -22.76C33.88 -19.88 30.36 -16.0 27.12 -12.56C18.52 -3.4 21.72 3.2 31.64 -0.84C34.6 -2.12 41.64 -5.75 51.24 -18.35" />
    <path vector-effect="non-scaling-stroke" transform="translate(128.03,100)" d="M0.0 -18.35C0.0 -18.35 17.48 -36.44 28.24 -31.24C28.32 -31.52 30.96 -29.88 28.68 -23.56C28.68 -23.56 32.76 -32.2 24.48 -31.84C22.24 -31.76 7.4 -28.08 -2.4 -9.08C-2.4 -9.08 -5.64 0.0 0.76 0.0C1.76 0.0 3.0 -0.36 4.56 -0.88C5.32 -1.12 12.24 -4.56 19.92 -13.12C28.8 -23.04 30.8 -25.0 36.16 -30.96C35.68 -31.08 16.64 -7.4 17.04 -2.84C17.04 -2.84 16.76 -0.04 20.0 0.0C21.12 0.0 22.76 -0.16 24.92 -1.16C24.92 -1.16 34.0 -5.59 44.16 -18.35" />
    <path vector-effect="non-scaling-stroke" transform="translate(205.52333333333,100)" d="M-1.24 -13.68C-1.24 -13.68 9.48 -16.24 14.76 -19.04C19.68 -21.64 25.88 -25.08 25.56 -29.56C25.56 -29.56 24.88 -35.2 15.16 -30.64C12.0 -29.16 -0.44 -20.6 -2.72 -10.08C-2.72 -10.08 -4.96 -0.04 5.76 0.32C6.36 0.32 13.52 0.12 21.72 -6.28C21.72 -6.28 29.04 -12.55 33.16 -18.35" />
</svg>