<?xml version="1.0" encoding="iso-8859-1"?>
<svg xmlns:dc="http://purl.org/dc/elements/1.1/" xmlns:cc="http://creativecommons.org/ns#" xmlns:rdf="http://www.w3.org/1999/02/22-rdf-syntax-ns#" xmlns:svg="http://www.w3.org/2000/svg" xmlns="http://www.w3.org/2000/svg" viewBox="0 0 269.25 110" width="100%" stroke-width="4" fill="none" stroke="black" stroke-linecap="round">
    <path vector-effect="non-scaling-stroke" transform="translate(0,100)" d="M0.41 -37.11C0.41 -37.11 15.03 -25.75 49.32 -48.15C63.31 -57.29 72.46 -70.34 59.21 -69.61C51.35 -69.17 17.42 -49.87 16.5 -31.53C16.48 -30.96 16.31 -20.88 33.86 -29.85C39.1 -32.53 50.8 -41.04 58.16 -46.15C42.21 -33.31 23.56 0.67 4.62 -0.19C4.62 -0.19 -6.06 -0.08 -5.93 -7.16C-5.87 -10.41 -3.15 -10.07 -1.9 -9.76C-1.13 -9.56 -0.19 -6.89 -3.45 -7.44" />
    <path vector-effect="non-scaling-stroke" transform="translate(54.11,100)" d="M42.72 -75.6C42.72 -75.6 19.6 -41.68 1.36 -17.08C-7.6 -4.92 -10.28 3.0 2.2 -1.08C6.92 -2.64 15.96 -10.87 22.48 -18.35" />
    <path vector-effect="non-scaling-stroke" transform="translate(76.59,100)" d="M-1.24 -13.68C-1.24 -13.68 9.48 -16.24 14.76 -19.04C19.68 -21.64 25.88 -25.08 25.56 -29.56C25.56 -29.56 24.88 -35.2 15.16 -30.64C12.0 -29.16 -0.44 -20.6 -2.72 -10.08C-2.72 -10.08 -4.96 -0.04 5.76 0.32C6.36 0.32 13.52 0.12 21.72 -6.28C21.72 -6.28 29.04 -12.55 33.16 -18.35" />
    <path vector-effect="non-scaling-stroke" transform="translate(109.75,100)" d="M0.0 -18.35C1.16 -20.15 27.88 -43.64 28.2 -25.48C30.08 -27.16 24.52 -43.28 2.4 -19.04C-3.08 -12.76 -7.44 -0.48 0.0 0.0C5.52 0.0 10.4 -4.8 20.64 -15.48C36.92 -34.44 50.36 -55.52 65.16 -75.64C47.64 -50.28 29.92 -27.52 16.16 -5.16C16.12 -5.08 13.72 0.36 18.24 0.0C29.2 -0.84 38.2 -13.07 42.8 -18.35" />
    <path vector-effect="non-scaling-stroke" transform="translate(152.55,100)" d="M0.0 -18.35C0.0 -18.35 8.06 -28.47 12.87 -33.49C14.11 -34.77 15.85 -35.21 16.81 -37.12C17.41 -38.33 14.82 -39.49 14.17 -34.86C14.17 -34.86 12.76 -31.79 12.91 -16.41C13.03 -5.03 3.69 1.61 -4.51 -0.06C-4.51 -0.06 -16.85 -1.22 -9.02 -9.71C-7.12 -11.77 -4.62 -11.29 -4.2 -11.11C-3.61 -10.86 -3.85 -8.59 -6.82 -9.4M11.57 -9.22C11.57 -9.22 15.83 -8.34 17.05 -8.65C19.11 -9.17 22.69 -10.47 29.3 -18.35" />
    <path vector-effect="non-scaling-stroke" transform="translate(181.85,100)" d="M24.48 -18.12C26.76 -24.88 28.24 -31.68 21.16 -31.76C6.68 -31.92 -11.04 -1.44 1.52 0.0C3.64 0.12 6.48 -0.32 10.04 -1.96C13.88 -4.28 18.72 -7.04 23.68 -16.44C25.28 -19.52 16.92 -13.16 20.12 -8.56C20.44 -8.12 24.92 -5.19 36.16 -18.35" />
    <path vector-effect="non-scaling-stroke" transform="translate(218.01,100)" d="M0.0 -18.35C0.08 -18.67 11.6 -32.44 14.36 -32.2C16.32 -32.04 17.0 -29.84 12.64 -22.84C12.64 -22.84 -0.92 -1.16 -0.92 -1.16C-1.6 1.04 11.84 -14.4 22.8 -24.92C33.08 -34.8 44.44 -35.44 36.16 -22.76C33.88 -19.88 30.36 -16.0 27.12 -12.56C18.52 -3.4 21.72 3.2 31.64 -0.84C34.6 -2.12 41.64 -5.75 51.24 -18.35" />
</svg>